<svg xmlns="http://www.w3.org/2000/svg" width="100" height="100"><g transform="translate(0 -952.362)"><path d="M36.863 990.827c.277 14.823 13.783 20.52 24.196 18.376 5.82-.918 11.945-19.601 7.198-18.376-7.574 2.48-31.505-5.936-31.394 0z" style="fill:#fea;fill-opacity:1;fill-rule:evenodd;stroke:#ffd940;stroke-width:1px;stroke-linecap:butt;stroke-linejoin:miter;stroke-opacity:1"/><path style="color:#000;display:inline;overflow:visible;visibility:visible;opacity:1;fill:#f60;fill-opacity:1;fill-rule:nonzero;stroke:#000;stroke-width:1;stroke-linecap:round;stroke-linejoin:round;stroke-miterlimit:4;stroke-dasharray:none;stroke-dashoffset:0;stroke-opacity:1;marker:none;enable-background:accumulate" d="M54.43 1019.34v11.934c-.147.044-.297.086-.424.135-1.801 1.93-.61 10.215 3.209 11.992.444-.217.449-2.97 1.074-3.593.624-.623 1.647-.493 3.486-1.317-.057-1.137-.17-2.19.988-3.433.946-1.016 4.204-2.189 4.604-2.598-1.988-1.663-7.338-2.035-10.947-1.57v-11.55h-1.99z"/><path style="color:#000;display:inline;overflow:visible;visibility:visible;opacity:1;fill:#fea;fill-opacity:1;fill-rule:nonzero;stroke:none;stroke-width:1;stroke-linecap:round;stroke-linejoin:round;stroke-miterlimit:4;stroke-dasharray:none;stroke-dashoffset:0;stroke-opacity:1;marker:none;enable-background:accumulate" d="M51.52 960.995c-10.44 0-13.642 16.17-13.45 23.43-9.187 3.297-15.026 10.196-15.035 17.763 0 10.911 11.93 19.756 26.646 19.756 14.717 0 26.647-8.845 26.647-19.755-.003-6.471-4.28-12.53-11.45-16.221.308-9.323-5.07-24.558-13.359-24.973z"/><path style="fill:#fea;fill-opacity:1;fill-rule:evenodd;stroke:#ffd940;stroke-width:1px;stroke-linecap:butt;stroke-linejoin:miter;stroke-opacity:1" d="M13.402 993.464c.277 14.823 13.782 20.521 24.196 18.377 5.82-.919 11.945-19.602 7.198-18.377-7.574 2.48-31.505-5.935-31.394 0z"/><path style="fill:#fff;fill-rule:evenodd;stroke:#000;stroke-width:1px;stroke-linecap:butt;stroke-linejoin:miter;stroke-opacity:1" d="M49.682 976.921s-3.37-4.747-.613-7.504c2.757-2.756 6.432 1.685 6.432 3.523 0 1.837-.46 3.369-.46 3.369l-4.747.612z"/><path d="M61.008 976.921s3.369-4.747.612-7.504c-2.756-2.756-6.431 1.685-6.431 3.523 0 1.837.459 3.369.459 3.369l4.747.612z" style="fill:#fff;fill-rule:evenodd;stroke:#000;stroke-width:1px;stroke-linecap:butt;stroke-linejoin:miter;stroke-opacity:1"/><path style="fill:#f60;fill-rule:evenodd;stroke:#000;stroke-width:1px;stroke-linecap:butt;stroke-linejoin:miter;stroke-opacity:1" d="M64.383 982.894c-2.91 0-6.585.918-11.791.306-5.172-.608-7.008-5.1-.307-5.82 30.518.049 35.245 4.833 12.098 5.514z"/><path d="M64.383 981.056c-2.91 0-6.585.919-11.791.306-5.172-.608-7.008-5.1-.307-5.819 30.518.048 35.245 4.833 12.098 5.513z" style="fill:#f60;fill-rule:evenodd;stroke:#000;stroke-width:1px;stroke-linecap:butt;stroke-linejoin:miter;stroke-opacity:1"/><ellipse style="color:#000;display:inline;overflow:visible;visibility:visible;opacity:1;fill:#333;fill-opacity:1;fill-rule:nonzero;stroke:none;stroke-width:1;stroke-linecap:round;stroke-linejoin:round;stroke-miterlimit:4;stroke-dasharray:none;stroke-dashoffset:0;stroke-opacity:1;marker:none;enable-background:accumulate" cx="53.051" cy="973.016" rx=".919" ry=".842"/><ellipse ry=".842" rx=".919" cy="972.557" cx="59.33" style="color:#000;display:inline;overflow:visible;visibility:visible;opacity:1;fill:#333;fill-opacity:1;fill-rule:nonzero;stroke:none;stroke-width:1;stroke-linecap:round;stroke-linejoin:round;stroke-miterlimit:4;stroke-dasharray:none;stroke-dashoffset:0;stroke-opacity:1;marker:none;enable-background:accumulate"/><path style="color:#000;display:inline;overflow:visible;visibility:visible;opacity:1;fill:#f60;fill-opacity:1;fill-rule:nonzero;stroke:#000;stroke-width:1;stroke-linecap:round;stroke-linejoin:round;stroke-miterlimit:4;stroke-dasharray:none;stroke-dashoffset:0;stroke-opacity:1;marker:none;enable-background:accumulate" d="M46.312 1019.34v11.81c-3.488.959-8.823 3.843-9.982 6.382.537.197 3.982-.149 5.273.36 1.581.622 1.934 1.62 2.373 2.67 2.015-.05 2.881-.608 3.713-.315.832.293 2.025 2.776 2.52 2.78 2.542-3.086.419-10.428-1.905-11.993v-11.693h-1.992z"/></g></svg>